<?xml version="1.0" encoding="UTF-8"?>
<svg width="171px" height="36px" viewBox="0 0 171 36" version="1.1" xmlns="http://www.w3.org/2000/svg" xmlns:xlink="http://www.w3.org/1999/xlink">
    <!-- Generator: Sketch 47.1 (45422) - http://www.bohemiancoding.com/sketch -->
    <title>logo</title>
    <desc>Created with Sketch.</desc>
    <defs>
        <linearGradient x1="100%" y1="3.74939946e-31%" x2="1.11022302e-14%" y2="100%" id="linearGradient-1">
            <stop stop-color="#FF977E" offset="0%"></stop>
            <stop stop-color="#FF64B3" offset="100%"></stop>
        </linearGradient>
    </defs>
    <g id="logo_homepage" stroke="none" stroke-width="1" fill="none" fill-rule="evenodd">
        <g id="home_page" transform="translate(-165.000000, -37.000000)">
            <g id="header" transform="translate(147.000000, 37.000000)">
                <g id="logo" transform="translate(18.000000, 0.000000)">
                    <path d="M45.657,32.4242016 C45.2199978,32.8251942 44.7140029,33.0256875 44.139,33.0256875 C43.5179969,33.0256875 43.006252,32.8251942 42.60375,32.4242016 C42.201248,32.0232089 42,31.5248399 42,30.9290794 L42,11.0628581 C42,10.4670976 42.2069979,9.96872857 42.621,9.56773594 C43.0350021,9.16674331 43.5639968,8.96625 44.208,8.96625 C44.7830029,8.96625 45.2774979,9.16674331 45.6915,9.56773594 C46.1055021,9.96872857 46.3125,10.4670976 46.3125,11.0628581 L46.3125,30.9290794 C46.3125,31.5248399 46.0940022,32.0232089 45.657,32.4242016 Z M66.474,16.3731197 C67.3710045,17.7594085 67.8195,19.6784159 67.8195,22.1301994 L67.8195,30.9290794 C67.8195,31.5248399 67.624002,32.0232089 67.233,32.4242016 C66.8419981,32.8251942 66.347503,33.0256875 65.7495,33.0256875 C65.151497,33.0256875 64.657002,32.8251942 64.266,32.4242016 C63.8749981,32.0232089 63.6795,31.5248399 63.6795,30.9290794 L63.6795,22.1301994 C63.6795,20.8699368 63.4150027,19.878927 62.886,19.1571403 C62.3569974,18.4353536 61.4485064,18.0744656 60.1605,18.0744656 C58.8264933,18.0744656 57.7800038,18.4582671 57.021,19.2258816 C56.2619962,19.993496 55.8825,20.9615923 55.8825,22.1301994 L55.8825,30.9290794 C55.8825,31.5248399 55.687002,32.0232089 55.296,32.4242016 C54.9049981,32.8251942 54.410503,33.0256875 53.8125,33.0256875 C53.214497,33.0256875 52.720002,32.8251942 52.329,32.4242016 C51.9379981,32.0232089 51.7425,31.5248399 51.7425,30.9290794 L51.7425,16.7340112 C51.7425,16.1382508 51.9379981,15.6398817 52.329,15.2388891 C52.720002,14.8378964 53.214497,14.6374031 53.8125,14.6374031 C54.410503,14.6374031 54.9049981,14.8378964 55.296,15.2388891 C55.687002,15.6398817 55.8825,16.1382508 55.8825,16.7340112 L55.8825,17.3183119 C56.5035031,16.4934128 57.314245,15.7830936 58.31475,15.1873331 C59.315255,14.5915726 60.413494,14.2936969 61.6095,14.2936969 C63.9555117,14.2936969 65.5769955,14.9868309 66.474,16.3731197 Z M82.68525,29.6058103 C82.9497513,29.9151475 83.082,30.3218625 83.082,30.8259675 C83.082,31.4446418 82.7427534,31.9659244 82.06425,32.3898309 C81.3857466,32.8137374 80.6210043,33.0256875 79.77,33.0256875 C78.3439929,33.0256875 77.1422549,32.7220833 76.16475,32.1148659 C75.1872451,31.5076485 74.6985,30.218763 74.6985,28.2481706 L74.6985,18.7618781 L73.1115,18.7618781 C72.5594973,18.7618781 72.0995019,18.57857 71.7315,18.2119481 C71.3634982,17.8453263 71.1795,17.3870559 71.1795,16.8371231 C71.1795,16.3101042 71.3634982,15.869019 71.7315,15.5138541 C72.0995019,15.1586892 72.5594973,14.9811094 73.1115,14.9811094 L74.6985,14.9811094 L74.6985,12.7813894 C74.6985,12.1856289 74.899748,11.6872598 75.30225,11.2862672 C75.704752,10.8852746 76.204997,10.6847812 76.803,10.6847812 C77.3780029,10.6847812 77.8609981,10.8852746 78.252,11.2862672 C78.643002,11.6872598 78.8385,12.1856289 78.8385,12.7813894 L78.8385,14.9811094 L81.288,14.9811094 C81.8400028,14.9811094 82.2999982,15.1644175 82.668,15.5310394 C83.0360019,15.8976612 83.22,16.3559316 83.22,16.9058644 C83.22,17.4328833 83.0360019,17.8739685 82.668,18.2291334 C82.2999982,18.5842983 81.8400028,18.7618781 81.288,18.7618781 L78.8385,18.7618781 L78.8385,28.0763175 C78.8385,28.5575087 78.9649988,28.9069398 79.218,29.1246216 C79.4710013,29.3423033 79.8159978,29.4511425 80.253,29.4511425 C80.4370009,29.4511425 80.6899984,29.4053155 81.012,29.31366 C81.2880014,29.1990907 81.5524988,29.1418069 81.8055,29.1418069 C82.1275016,29.1418069 82.4207487,29.2964731 82.68525,29.6058103 Z M103.347,24.7423669 C102.932998,25.0860748 102.450003,25.2579262 101.898,25.2579262 L90.513,25.2579262 C90.7890014,26.6098443 91.4214951,27.6695946 92.4105,28.4372091 C93.399505,29.2048235 94.5149938,29.588625 95.757,29.588625 C96.7000047,29.588625 97.4359974,29.5026993 97.965,29.3308453 C98.4940027,29.1589913 98.9137485,28.9756832 99.22425,28.7809153 C99.5347516,28.5861475 99.7474995,28.4543947 99.8625,28.3856531 C100.276502,28.1794283 100.667498,28.0763175 101.0355,28.0763175 C101.518502,28.0763175 101.932498,28.2481689 102.2775,28.5918769 C102.622502,28.9355848 102.795,29.3365715 102.795,29.7948487 C102.795,30.4135231 102.473003,30.9749044 101.829,31.4790094 C101.184997,32.0060283 100.322505,32.4528419 99.2415,32.8194637 C98.1604946,33.1860856 97.0680055,33.3693937 95.964,33.3693937 C94.0319904,33.3693937 92.3472572,32.9684071 90.90975,32.1664219 C89.4722428,31.3644366 88.3625039,30.2588592 87.5805,28.8496566 C86.7984961,27.4404539 86.4075,25.8536926 86.4075,24.089325 C86.4075,22.1187326 86.8214959,20.3887618 87.6495,18.8993606 C88.4775042,17.4099594 89.5699932,16.2700118 90.927,15.4794834 C92.2840068,14.6889551 93.7329923,14.2936969 95.274,14.2936969 C96.7920076,14.2936969 98.2237433,14.7061403 99.56925,15.5310394 C100.914757,16.3559385 101.989996,17.4672443 102.795,18.86499 C103.600004,20.2627357 104.0025,21.7750281 104.0025,23.4019125 C103.9795,23.9518452 103.761002,24.3986589 103.347,24.7423669 Z M90.5475,21.8208637 L99.5865,21.8208637 L99.5865,21.5802694 C99.4944996,20.6178871 99.0230043,19.7930003 98.172,19.1055844 C97.3209958,18.4181684 96.3550054,18.0744656 95.274,18.0744656 C92.6059867,18.0744656 91.0305024,19.3232525 90.5475,21.8208637 Z M119.38575,14.8779975 C119.857252,15.2675332 120.093,15.7258036 120.093,16.2528225 C120.093,16.9631523 119.909002,17.4958917 119.541,17.8510566 C119.172998,18.2062215 118.736003,18.3838012 118.23,18.3838012 C117.884998,18.3838012 117.494002,18.3036039 117.057,18.1432069 C116.988,18.120293 116.832751,18.074466 116.59125,18.0057244 C116.349749,17.9369828 116.091001,17.9026125 115.815,17.9026125 C115.216997,17.9026125 114.642003,18.0859207 114.09,18.4525425 C113.537997,18.8191643 113.083752,19.3748172 112.72725,20.1195178 C112.370748,20.8642184 112.1925,21.7521173 112.1925,22.7832412 L112.1925,30.9290794 C112.1925,31.5248399 111.997002,32.0232089 111.606,32.4242016 C111.214998,32.8251942 110.720503,33.0256875 110.1225,33.0256875 C109.524497,33.0256875 109.030002,32.8251942 108.639,32.4242016 C108.247998,32.0232089 108.0525,31.5248399 108.0525,30.9290794 L108.0525,16.7340112 C108.0525,16.1382508 108.247998,15.6398817 108.639,15.2388891 C109.030002,14.8378964 109.524497,14.6374031 110.1225,14.6374031 C110.720503,14.6374031 111.214998,14.8378964 111.606,15.2388891 C111.997002,15.6398817 112.1925,16.1382508 112.1925,16.7340112 L112.1925,17.1808294 C112.721503,16.2413609 113.480495,15.5253134 114.4695,15.0326653 C115.458505,14.5400172 116.516494,14.2936969 117.6435,14.2936969 C118.333503,14.2936969 118.914248,14.4884618 119.38575,14.8779975 Z M138.357,16.3731197 C139.254005,17.7594085 139.7025,19.6784159 139.7025,22.1301994 L139.7025,30.9290794 C139.7025,31.5248399 139.507002,32.0232089 139.116,32.4242016 C138.724998,32.8251942 138.230503,33.0256875 137.6325,33.0256875 C137.034497,33.0256875 136.540002,32.8251942 136.149,32.4242016 C135.757998,32.0232089 135.5625,31.5248399 135.5625,30.9290794 L135.5625,22.1301994 C135.5625,20.8699368 135.298003,19.878927 134.769,19.1571403 C134.239997,18.4353536 133.331506,18.0744656 132.0435,18.0744656 C130.709493,18.0744656 129.663004,18.4582671 128.904,19.2258816 C128.144996,19.993496 127.7655,20.9615923 127.7655,22.1301994 L127.7655,30.9290794 C127.7655,31.5248399 127.570002,32.0232089 127.179,32.4242016 C126.787998,32.8251942 126.293503,33.0256875 125.6955,33.0256875 C125.097497,33.0256875 124.603002,32.8251942 124.212,32.4242016 C123.820998,32.0232089 123.6255,31.5248399 123.6255,30.9290794 L123.6255,16.7340112 C123.6255,16.1382508 123.820998,15.6398817 124.212,15.2388891 C124.603002,14.8378964 125.097497,14.6374031 125.6955,14.6374031 C126.293503,14.6374031 126.787998,14.8378964 127.179,15.2388891 C127.570002,15.6398817 127.7655,16.1382508 127.7655,16.7340112 L127.7655,17.3183119 C128.386503,16.4934128 129.197245,15.7830936 130.19775,15.1873331 C131.198255,14.5915726 132.296494,14.2936969 133.4925,14.2936969 C135.838512,14.2936969 137.459996,14.9868309 138.357,16.3731197 Z M148.0995,32.4242016 C147.708498,32.8251942 147.214003,33.0256875 146.616,33.0256875 C146.017997,33.0256875 145.523502,32.8251942 145.1325,32.4242016 C144.741498,32.0232089 144.546,31.5248399 144.546,30.9290794 L144.546,16.7340112 C144.546,16.1382508 144.741498,15.6398817 145.1325,15.2388891 C145.523502,14.8378964 146.017997,14.6374031 146.616,14.6374031 C147.214003,14.6374031 147.708498,14.8378964 148.0995,15.2388891 C148.490502,15.6398817 148.686,16.1382508 148.686,16.7340112 L148.686,30.9290794 C148.686,31.5248399 148.490502,32.0232089 148.0995,32.4242016 Z M169.9515,14.8779975 C170.342502,15.2675332 170.538,15.7716307 170.538,16.390305 L170.538,30.9290794 C170.538,31.5248399 170.342502,32.0232089 169.9515,32.4242016 C169.560498,32.8251942 169.066003,33.0256875 168.468,33.0256875 C167.869997,33.0256875 167.381252,32.8309226 167.00175,32.4413869 C166.622248,32.0518512 166.421,31.5592105 166.398,30.96345 C165.822997,31.6279521 165.046755,32.1950617 164.06925,32.6647959 C163.091745,33.1345302 162.062505,33.3693937 160.9815,33.3693937 C159.394492,33.3693937 157.957007,32.9626788 156.669,32.1492366 C155.380994,31.3357944 154.363254,30.2073035 153.61575,28.76373 C152.868246,27.3201565 152.4945,25.6818398 152.4945,23.8487306 C152.4945,22.0156215 152.862496,20.3715763 153.5985,18.9165459 C154.334504,17.4615155 155.340744,16.3272963 156.61725,15.5138541 C157.893756,14.7004119 159.302492,14.2936969 160.8435,14.2936969 C161.947506,14.2936969 162.982495,14.4941902 163.9485,14.8951828 C164.914505,15.2961754 165.730997,15.8060013 166.398,16.4246756 L166.398,16.390305 C166.398,15.7945445 166.593498,15.2961754 166.9845,14.8951828 C167.375502,14.4941902 167.869997,14.2936969 168.468,14.2936969 C169.066003,14.2936969 169.560498,14.4884618 169.9515,14.8779975 Z M165.156,27.9560203 C166.099005,26.8676117 166.5705,25.4985289 166.5705,23.8487306 C166.5705,22.1989324 166.099005,20.8241211 165.156,19.7242556 C164.212995,18.6243901 162.994008,18.0744656 161.499,18.0744656 C160.026993,18.0744656 158.819505,18.6243901 157.8765,19.7242556 C156.933495,20.8241211 156.462,22.1989324 156.462,23.8487306 C156.462,25.4985289 156.927745,26.8676117 157.85925,27.9560203 C158.790755,29.0444289 160.003993,29.588625 161.499,29.588625 C162.994008,29.588625 164.212995,29.0444289 165.156,27.9560203 Z" id="Internia-Copy-37" fill="#000000"></path>
                    <ellipse id="Oval-6" fill="#000000" cx="146.549995" cy="9.7134375" rx="2.25" ry="2.2415625"></ellipse>
                    <path d="M15,35.865 C6.71572875,35.865 0,29.1744552 0,20.92125 C0,12.6680448 6.71572875,5.9775 15,5.9775 C23.2842712,5.9775 30,12.6680448 30,20.92125 C30,29.1744552 23.2842712,35.865 15,35.865 Z M15,26.89875 C18.3137085,26.89875 21,24.2225321 21,20.92125 C21,17.6199679 18.3137085,14.94375 15,14.94375 C11.6862915,14.94375 9,17.6199679 9,20.92125 C9,24.2225321 11.6862915,26.89875 15,26.89875 Z M27,5.9775 C25.3431458,5.9775 24,4.63939105 24,2.98875 C24,1.33810895 25.3431458,0 27,0 C28.6568542,0 30,1.33810895 30,2.98875 C30,4.63939105 28.6568542,5.9775 27,5.9775 Z" id="Combined-Shape-Copy-39" fill="url(#linearGradient-1)"></path>
                </g>
            </g>
        </g>
    </g>
</svg>